<?xml version="1.0" standalone="no"?>
<!DOCTYPE svg PUBLIC "-//W3C//DTD SVG 20010904//EN"
 "http://www.w3.org/TR/2001/REC-SVG-20010904/DTD/svg10.dtd">
<svg version="1.0" xmlns="http://www.w3.org/2000/svg"
 width="152.000000pt" height="152.000000pt" viewBox="0 0 152.000000 152.000000"
 preserveAspectRatio="xMidYMid meet">
<metadata>
Created by potrace 1.11, written by Peter Selinger 2001-2013
</metadata>
<g transform="translate(0.000000,152.000000) scale(0.100000,-0.100000)"
fill="#000000" stroke="none">
<path d="M590 1377 c-80 -19 -140 -54 -140 -84 0 -7 10 -23 21 -34 18 -18 19
-23 8 -30 -8 -4 -30 -19 -49 -34 l-35 -26 -5 98 c-5 93 -6 98 -28 101 -34 5
-84 -38 -149 -130 -88 -123 -128 -165 -168 -172 -48 -9 -44 -26 7 -26 39 0 40
-1 25 -18 -36 -40 -3 -44 62 -7 23 14 44 25 46 25 2 0 -2 -13 -8 -30 -8 -22
-8 -33 0 -41 8 -8 18 0 38 32 15 24 34 54 41 67 13 19 54 32 54 16 0 -3 -18
-42 -39 -87 -23 -46 -45 -112 -52 -151 -39 -229 82 -463 303 -585 51 -28 65
-40 52 -43 -17 -4 -16 -6 6 -15 41 -17 209 -25 303 -14 96 11 122 20 91 32
-19 7 -19 7 1 15 32 12 117 65 158 99 84 67 163 196 186 304 14 64 14 181 1
239 -11 46 -56 148 -87 194 -12 19 -14 31 -7 38 20 20 42 -2 67 -63 15 -38 32
-63 42 -65 15 -3 17 1 11 32 l-7 37 46 -36 c26 -19 51 -35 56 -35 13 0 11 24
-3 39 -11 10 -5 11 30 5 43 -7 61 9 23 21 -45 14 -75 53 -126 159 -71 154
-130 216 -162 174 -5 -7 -17 -53 -27 -102 -9 -49 -19 -93 -22 -97 -4 -7 -27 7
-113 67 -2 2 4 10 13 19 9 9 16 22 16 29 0 22 -46 57 -96 73 -66 21 -309 27
-384 10z m680 -33 c8 -9 44 -76 81 -150 65 -132 65 -134 33 -109 -49 38 -51
12 -2 -35 l43 -42 -53 43 c-41 33 -55 40 -62 30 -6 -11 -9 -9 -14 6 -4 11 -16
29 -27 39 -17 15 -23 16 -41 5 -18 -11 -23 -10 -40 7 -17 17 -19 25 -10 53 6
19 14 53 17 77 4 23 11 42 16 42 5 0 9 9 9 20 0 34 19 22 52 -30 17 -28 33
-48 35 -46 14 14 -73 120 -90 109 -6 -3 -7 -1 -3 5 8 14 35 3 56 -24z m-895
-5 c4 -11 4 -23 1 -26 -3 -4 -6 1 -6 10 0 31 -19 26 -71 -21 -38 -33 -46 -38
-29 -16 25 31 78 74 92 74 4 0 10 -9 13 -21z m490 -10 c58 -15 84 -41 28 -28
-58 13 -192 11 -253 -5 -60 -16 -69 -14 -51 8 27 32 190 46 276 25z m-505 -25
c0 -14 4 -23 10 -19 6 4 10 -18 10 -59 0 -58 -3 -69 -27 -93 -20 -20 -36 -27
-55 -25 -18 2 -33 -4 -44 -16 -9 -11 -23 -18 -30 -15 -7 2 -30 -7 -51 -21 -50
-34 -68 -34 -20 1 20 14 37 30 37 35 0 12 -6 10 -53 -13 l-42 -22 37 41 c21
23 54 66 74 96 20 31 40 53 45 51 4 -3 27 15 50 40 48 52 59 55 59 19z m590
-220 c22 -56 -23 -116 -54 -72 -9 12 -16 31 -16 41 0 55 52 78 70 31z m-356
-10 c22 -22 20 -60 -5 -85 -18 -18 -23 -19 -42 -6 -25 16 -35 71 -16 93 15 19
44 18 63 -2z m329 -480 c20 -4 37 -12 37 -19 0 -7 -20 -54 -45 -104 -76 -150
-152 -190 -227 -117 -45 44 -124 194 -110 208 31 31 237 49 345 32z"/>
</g>
</svg>
